<svg width="452" height="464" viewBox="0 0 452 464" fill="none" xmlns="http://www.w3.org/2000/svg">
<path d="M303.859 359.849L294.359 359.838L294.356 363.048L296.3 365.603L303.859 359.849ZM442.5 359.849L450.095 365.555L452 363.02V359.849H442.5ZM442.5 85.6804H433V85.6804L442.5 85.6804ZM442.5 26.4221H452V25.8192L451.924 25.2212L442.5 26.4221ZM420.752 9.82943L421.503 0.35914L421.168 0.33257L420.831 0.329765L420.752 9.82943ZM392.928 9.59734L393.007 0.0976706L392.967 0.0973406H392.928L392.928 9.59734ZM336.747 9.59729L336.307 19.0871L336.527 19.0973H336.747L336.747 9.59729ZM309.296 20.1009L301.953 14.0739L309.296 20.1009ZM302.5 37.0884L293.027 36.3741L292.986 36.91L293.007 37.4471L302.5 37.0884ZM373.632 451.501L366.074 457.255C367.877 459.624 370.686 461.01 373.662 461.001C376.639 460.992 379.439 459.588 381.227 457.208L373.632 451.501ZM442.5 359.849H452L452 85.6804H442.5L433 85.6804L433 359.849H442.5ZM420.752 9.82943L420.831 0.329765L393.007 0.0976706L392.928 9.59734L392.848 19.097L420.673 19.3291L420.752 9.82943ZM392.928 9.59734L392.928 0.0973406L336.747 0.097291L336.747 9.59729L336.747 19.0973L392.928 19.0973L392.928 9.59734ZM336.747 9.59729L337.186 0.107467C330.775 -0.189522 324.399 0.0219955 318.291 2.13637C311.926 4.33921 306.692 8.29965 301.953 14.0739L309.296 20.1009L316.639 26.128C319.618 22.4993 322.085 20.929 324.505 20.0912C327.181 19.165 330.672 18.8261 336.307 19.0871L336.747 9.59729ZM309.296 20.1009L301.953 14.0739C300.676 15.629 300.051 16.2678 298.923 17.582C297.941 18.7248 296.696 20.262 295.69 22.3596C293.844 26.2105 293.448 30.793 293.027 36.3741L302.5 37.0884L311.973 37.8027C312.201 34.7831 312.386 32.9608 312.583 31.7356C312.77 30.5734 312.901 30.4113 312.823 30.5738C312.74 30.7456 312.692 30.7118 313.338 29.9591C313.837 29.3777 315.27 27.7965 316.639 26.128L309.296 20.1009ZM303.859 359.849V369.349H442.5V359.849V350.349H303.859V359.849ZM373.632 451.501L381.191 445.747L311.418 354.094L303.859 359.849L296.3 365.603L366.074 457.255L373.632 451.501ZM373.632 451.501L381.227 457.208L450.095 365.555L442.5 359.849L434.905 354.142L366.038 445.794L373.632 451.501ZM442.5 85.6804H452V78.5689H442.5H433V85.6804H442.5ZM442.5 78.5689H452V26.4221H442.5H433V78.5689H442.5ZM302.5 37.0884L293.007 37.4471L294.674 81.5664L304.167 81.2077L313.66 80.8491L311.993 36.7297L302.5 37.0884ZM304.167 81.2077L294.667 81.1972L294.359 359.838L303.859 359.849L313.359 359.859L313.667 81.2182L304.167 81.2077ZM442.5 78.5689L442.319 69.0706L303.986 71.7095L304.167 81.2077L304.348 90.706L442.681 88.0672L442.5 78.5689ZM420.752 9.82943L420.001 19.2997C422.726 19.5157 426.221 20.952 429.204 23.264C430.637 24.3748 431.707 25.5029 432.386 26.4552C433.109 27.4698 433.109 27.8816 433.076 27.623L442.5 26.4221L451.924 25.2212C451 17.9727 445.695 12.0069 440.844 8.24661C435.671 4.23762 428.746 0.933302 421.503 0.35914L420.752 9.82943Z" fill="#C4A77D"/>
<path d="M12.5 451.501C12.5 410.693 13.4787 362.192 14.5041 309.776M247.5 448.744V309.776M247.5 309.776V17.501C245.997 17.501 242.289 17.501 137.265 17.501C24.0244 26.8758 17.2704 168.362 14.5041 309.776M247.5 309.776H131.002H14.5041" stroke="#C4A77D" stroke-width="25" stroke-miterlimit="16" stroke-linecap="round"/>
</svg>
