<svg width="517" height="402" viewBox="0 0 517 402" fill="none" xmlns="http://www.w3.org/2000/svg">
<path d="M501 241.274C509.56 241.274 516.5 234.334 516.5 225.774C516.5 217.214 509.56 210.274 501 210.274V225.774V241.274ZM382 255.504L396.79 260.14V260.14L382 255.504ZM342.985 156.463L329.683 164.42V164.42L342.985 156.463ZM255.226 28.173L270.532 25.7254C270.266 24.0662 269.733 22.4612 268.952 20.9732L255.226 28.173ZM189.779 244.939L181.079 232.111V232.111L189.779 244.939ZM85.6583 225.77V241.27H87.5505L89.3871 240.814L85.6583 225.77ZM15.5 210.27C6.93959 210.27 0 217.209 0 225.77C0 234.33 6.93959 241.27 15.5 241.27V225.77V210.27ZM382 255.504L396.79 260.14C399.784 250.588 400.83 247.339 402.179 245.31C402.33 245.084 402.445 244.186 406.837 243.199C412.237 241.985 421.062 241.379 436.802 241.207C452.299 241.038 472.717 241.274 501 241.274V225.774V210.274C473.283 210.274 452.139 210.038 436.464 210.209C421.032 210.378 409.075 210.923 400.038 212.954C389.992 215.212 382.014 219.653 376.368 228.141C371.92 234.828 369.466 243.67 367.21 250.868L382 255.504ZM342.985 156.463L329.683 164.42C343.654 187.774 350.008 219.452 354.419 242.949C355.477 248.584 356.466 253.945 357.416 258.278C358.241 262.038 359.44 267.102 361.462 270.938C362.131 272.208 365.134 277.975 372.115 280.068C381.435 282.863 387.836 276.952 389.801 274.699C391.963 272.219 393.315 269.391 394.135 267.492C395.073 265.32 395.949 262.825 396.79 260.14L382 255.504L367.21 250.868C366.534 253.025 366.021 254.4 365.674 255.204C365.209 256.282 365.378 255.537 366.438 254.323C367.299 253.335 372.674 247.872 381.021 250.375C384.313 251.362 386.345 253.232 387.291 254.266C388.257 255.321 388.745 256.215 388.887 256.486C389.123 256.933 388.644 255.954 387.696 251.634C386.874 247.887 385.995 243.132 384.887 237.229C380.635 214.577 373.552 177.367 356.286 148.506L342.985 156.463ZM292.412 386.504V402.004C300.371 402.004 306.073 397.68 309.472 393.873C312.813 390.129 315.209 385.549 317.015 381.262C320.67 372.585 323.522 361.129 325.894 348.765C330.683 323.79 334.208 291.207 337.312 260.468C340.464 229.255 343.17 200.139 346.314 180.742C347.98 170.465 349.456 165.167 350.251 163.546C350.375 163.294 350.042 164.089 349.009 165.161C347.951 166.258 345.183 168.611 340.696 168.971C336.046 169.345 332.762 167.334 331.304 166.133C329.982 165.043 329.518 164.144 329.683 164.42L342.985 156.463L356.286 148.506C355.198 146.687 353.521 144.272 351.023 142.213C348.39 140.042 343.968 137.609 338.214 138.071C332.622 138.52 328.785 141.473 326.688 143.649C324.616 145.799 323.274 148.149 322.418 149.896C319.291 156.272 317.289 166.065 315.714 175.782C312.376 196.375 309.548 226.864 306.469 257.353C303.342 288.315 299.936 319.528 295.449 342.926C293.182 354.747 290.808 363.62 288.447 369.226C287.885 370.559 287.387 371.552 286.977 372.262C286.557 372.988 286.325 373.252 286.343 373.232C286.354 373.219 286.823 372.687 287.844 372.132C288.959 371.525 290.539 371.004 292.412 371.004V386.504ZM255.226 28.173L239.921 30.6205C249.398 89.8842 250.861 177.994 253.869 253.302C255.354 290.464 257.232 324.669 260.798 349.705C262.56 362.077 264.874 373.293 268.226 381.767C269.888 385.97 272.201 390.541 275.638 394.287C279.289 398.266 284.936 402.004 292.412 402.004V386.504V371.004C295.984 371.004 298.074 372.887 298.48 373.329C298.672 373.538 298.051 372.891 297.053 370.365C295.082 365.384 293.166 357.108 291.488 345.333C288.175 322.075 286.335 289.37 284.844 252.064C281.903 178.436 280.391 87.3803 270.532 25.7254L255.226 28.173ZM189.779 244.939L198.479 257.767C203.436 254.405 206.546 249.491 208.536 245.613C210.681 241.433 212.45 236.591 213.962 231.561C216.993 221.482 219.532 208.816 221.784 195.131C226.276 167.826 230.036 133.728 233.967 103.733C238.033 72.7034 242.184 47.0368 247.179 33.6659C248.385 30.4374 249.29 28.9304 249.636 28.4713C250.111 27.8386 248.429 30.4799 244.13 30.943C239.542 31.4374 237.187 28.9358 237.633 29.3685C238.051 29.7748 239.41 31.3896 241.5 35.3728L255.226 28.173L268.952 20.9732C266.208 15.74 263.046 10.8343 259.224 7.12426C255.429 3.44058 249.113 -0.773247 240.809 0.121423C232.794 0.98495 227.642 6.13908 224.859 9.84024C221.945 13.7149 219.803 18.3627 218.139 22.8183C211.652 40.1837 207.158 69.7227 203.229 99.705C199.165 130.722 195.581 163.442 191.195 190.098C189.007 203.393 186.724 214.493 184.276 222.633C183.049 226.713 181.913 229.594 180.956 231.458C179.845 233.625 179.655 233.077 181.079 232.111L189.779 244.939ZM137.719 163.836V179.336C133.909 179.336 131.376 177.634 130.376 176.783C129.483 176.024 129.32 175.563 129.702 176.194C130.471 177.466 131.634 180.071 133.153 184.484C134.609 188.711 136.099 193.709 137.756 199.355C139.377 204.879 141.145 210.979 143.045 216.92C146.653 228.204 151.486 241.505 158.547 250.576C162.187 255.252 167.69 260.483 175.542 262.464C184.021 264.603 191.981 262.174 198.479 257.767L189.779 244.939L181.079 232.111C179.898 232.911 180.936 231.854 183.125 232.406C184.686 232.8 184.528 233.485 183.009 231.534C179.753 227.351 176.28 219.075 172.572 207.478C170.814 201.98 169.171 196.315 167.501 190.626C165.867 185.058 164.187 179.396 162.464 174.392C160.806 169.574 158.783 164.377 156.231 160.156C154.952 158.041 153.095 155.41 150.458 153.168C147.714 150.834 143.388 148.336 137.719 148.336V163.836ZM85.6583 225.77L89.3871 240.814C101.048 237.924 109.852 230.649 116.37 223.148C122.879 215.657 127.995 206.91 132.042 199.363C136.546 190.965 139.124 185.346 142.065 180.406C142.696 179.346 143.222 178.538 143.652 177.936C143.864 177.641 144.031 177.424 144.156 177.272C144.282 177.118 144.343 177.057 144.336 177.064C144.33 177.07 144.223 177.179 144.009 177.348C143.797 177.516 143.432 177.78 142.912 178.063C141.838 178.648 140.045 179.336 137.719 179.336V163.836V148.336C130.076 148.336 124.839 152.678 122.235 155.325C119.433 158.174 117.178 161.61 115.43 164.546C112.142 170.067 108.027 178.549 104.722 184.712C100.96 191.728 97.1514 198.003 92.9694 202.815C88.796 207.619 85.1427 209.928 81.9295 210.725L85.6583 225.77ZM15.5 225.77V241.27H85.6583V225.77V210.27H15.5V225.77Z" fill="#C4A77D"/>
</svg>
