<svg width="409" height="270" viewBox="0 0 409 270" fill="none" xmlns="http://www.w3.org/2000/svg">
<path d="M107.86 3.97559C112.568 -1.07337 120.478 -1.3502 125.527 3.35742L117.155 12.3369C125.414 3.47921 125.526 3.36014 125.529 3.35938C125.529 3.35988 125.53 3.36141 125.531 3.3623C125.533 3.36434 125.537 3.36679 125.541 3.37012C125.548 3.37697 125.558 3.38726 125.571 3.39941C125.597 3.42419 125.636 3.45946 125.686 3.50586C125.785 3.59885 125.931 3.73534 126.12 3.91309C126.498 4.26882 127.053 4.79233 127.769 5.47168C129.202 6.83062 131.284 8.81638 133.899 11.3447C139.128 16.4005 146.497 23.6333 155.09 32.3662C170.885 48.4175 190.933 69.6624 209.446 91.8525C234.897 87.299 249.359 87.2781 261.868 88.7764C274.797 90.325 281.665 92.6445 296.912 92.9619C306.238 87.4833 316.972 84.9521 327.233 83.958C338.947 82.8232 351.014 83.5973 361.658 85.0205C372.355 86.4507 381.976 88.5864 388.905 90.3545C392.381 91.2415 395.209 92.0433 397.19 92.6309C398.181 92.9248 398.962 93.1662 399.508 93.3379C399.781 93.4237 399.997 93.4926 400.15 93.542C400.226 93.5666 400.287 93.5868 400.333 93.6016C400.355 93.6089 400.374 93.6143 400.389 93.6191C400.396 93.6215 400.402 93.6242 400.408 93.626C400.41 93.6268 400.414 93.6275 400.416 93.6279C400.419 93.6289 400.421 93.6305 396.502 105.5L400.421 93.6299C406.781 95.7297 410.356 102.47 408.528 108.913L365.528 260.413C364.002 265.79 359.092 269.5 353.502 269.5V257C353.502 269.121 353.502 269.489 353.501 269.5H57.0024C51.4557 269.5 46.5725 265.844 45.0093 260.522L0.509277 109.022C-1.39024 102.554 2.18123 95.745 8.58252 93.6309L12.5024 105.5C8.59541 93.6699 8.58539 93.63 8.58838 93.6289C8.5897 93.6285 8.59261 93.6268 8.59521 93.626C8.60058 93.6242 8.6074 93.6225 8.61475 93.6201C8.62952 93.6153 8.64869 93.609 8.67139 93.6016C8.71674 93.5868 8.7777 93.5666 8.854 93.542C9.00713 93.4926 9.22236 93.4238 9.49561 93.3379C10.042 93.1661 10.823 92.9249 11.814 92.6309C13.7951 92.043 16.6236 91.2409 20.1001 90.3535C27.0297 88.5847 36.6516 86.4484 47.3491 85.0176C57.9937 83.5938 70.061 82.8188 81.7749 83.9541C92.0834 84.9532 102.868 87.5053 112.224 93.0391C129.683 93.4054 140.665 96.2699 150.111 97.4014C157.429 98.2779 166.212 98.6193 180.793 96.7646C165.678 79.3585 150.116 62.9538 137.271 49.9004C128.847 41.3392 121.627 34.2545 116.521 29.3174C113.969 26.8495 111.946 24.9198 110.567 23.6123C109.878 22.9589 109.35 22.4607 108.997 22.1289C108.82 21.9631 108.687 21.8383 108.6 21.7568C108.557 21.7164 108.525 21.6861 108.504 21.667C108.494 21.6575 108.486 21.6506 108.482 21.6465L108.478 21.6426C103.429 16.9346 103.152 9.02467 107.86 3.97559ZM79.3638 108.838C70.2039 107.95 60.1867 108.523 50.6636 109.797C42.0597 110.948 34.1498 112.632 28.0649 114.132L66.3589 244.5H116.623C116.573 244.17 116.523 243.834 116.472 243.494C115.041 233.913 113.041 220.523 110.765 205.283C106.51 176.793 101.29 141.841 97.019 113.24C92.2755 110.985 86.3334 109.513 79.3638 108.838ZM135.491 201.591C137.767 216.83 139.767 230.221 141.198 239.802C141.45 241.489 141.684 243.059 141.899 244.5H192.69C192.686 243.607 192.681 242.676 192.676 241.71C192.629 232.12 192.563 218.748 192.488 203.499C192.361 177.924 192.208 147.128 192.076 120.405C171.166 123.688 158.365 123.569 147.137 122.224C137.779 121.103 131.595 119.578 123.112 118.7L135.491 201.591ZM258.894 113.599C249.875 112.518 238.632 112.248 217.054 115.903C217.191 143.599 217.353 176.381 217.487 203.375C217.562 218.605 217.629 232.015 217.676 241.586C217.681 242.605 217.686 243.577 217.691 244.5H268.5C268.696 243.092 268.909 241.563 269.138 239.922C270.474 230.341 272.341 216.95 274.466 201.71C278.087 175.743 282.456 144.408 286.221 117.406C274.601 116.425 266.278 114.483 258.894 113.599ZM358.344 109.801C348.822 108.528 338.805 107.953 329.644 108.841C322.704 109.513 316.782 110.974 312.047 113.212C308.062 141.796 303.194 176.704 299.226 205.163C297.101 220.402 295.234 233.793 293.898 243.374C293.845 243.755 293.792 244.131 293.741 244.5H344.056L381.049 114.161C374.951 112.655 366.999 110.958 358.344 109.801ZM205.502 95.5C199.151 95.5001 194.003 100.649 194.002 107C194.002 113.351 199.151 118.5 205.502 118.5C211.854 118.5 217.002 113.351 217.002 107C217.002 100.649 211.854 95.5 205.502 95.5ZM16.4136 117.372C16.4136 117.372 16.4145 117.372 16.4155 117.372L16.4185 117.371L16.4175 117.37C16.4154 117.371 16.4141 117.372 16.4136 117.372Z" fill="#C4A77D"/>
</svg>
