<svg width="553" height="362" viewBox="0 0 553 362" fill="none" xmlns="http://www.w3.org/2000/svg">
<path d="M253 221.945L246.289 215.221L244.257 217.249L243.688 220.063L253 221.945ZM329.5 298.445L331.437 307.745L334.213 307.167L336.217 305.162L329.5 298.445ZM503 124.945L496.282 118.227L496.282 118.227L503 124.945ZM540.5 87.4446L547.217 94.1621L547.589 93.79L547.918 93.3791L540.5 87.4446ZM539 64.9443L546.298 58.8625L546.051 58.5665L545.781 58.2913L539 64.9443ZM523.794 49.4443L530.575 42.7914L530.543 42.7589L530.511 42.7268L523.794 49.4443ZM492.794 18.4443L485.729 24.796L485.898 24.9835L486.076 25.1618L492.794 18.4443ZM471 9.94443L469.447 0.572292L471 9.94443ZM456.5 16.9446L450.238 9.80079L449.885 10.1097L449.565 10.4519L456.5 16.9446ZM233.5 318.444L224.188 316.563C223.556 319.693 224.538 322.931 226.803 325.182C229.067 327.433 232.311 328.396 235.437 327.745L233.5 318.444ZM507.5 120.444L514.218 127.162L514.218 127.162L507.5 120.444ZM3.04642 186.473C-0.803815 190.037 -1.03568 196.048 2.52854 199.898C6.09276 203.748 12.1034 203.98 15.9536 200.416L9.5 193.444L3.04642 186.473ZM213.186 339.904C217.582 337.04 218.824 331.155 215.96 326.759C213.096 322.363 207.211 321.121 202.814 323.984L208 331.944L213.186 339.904ZM329.5 298.445L336.217 305.162L509.717 131.662L503 124.945L496.282 118.227L322.782 291.727L329.5 298.445ZM539 64.9443L545.781 58.2913L530.575 42.7914L523.794 49.4443L517.012 56.0973L532.219 71.5972L539 64.9443ZM523.794 49.4443L530.511 42.7268L499.511 11.7268L492.794 18.4443L486.076 25.1618L517.076 56.1618L523.794 49.4443ZM492.794 18.4443L499.858 12.0926C496.402 8.249 492.402 4.48848 487.13 2.2128C481.643 -0.155952 475.826 -0.485107 469.447 0.572292L471 9.94443L472.553 19.3166C476.382 18.6819 478.316 19.1027 479.6 19.6569C481.099 20.3042 482.891 21.6396 485.729 24.796L492.794 18.4443ZM471 9.94443L469.447 0.572292C467.766 0.850815 467.092 0.898993 465.579 1.11648C464.262 1.30581 462.527 1.60594 460.584 2.40335C457.099 3.83357 453.99 6.51176 450.238 9.80079L456.5 16.9446L462.762 24.0883C464.799 22.3026 466.06 21.247 466.95 20.576C467.802 19.9329 467.974 19.9084 467.798 19.9808C467.583 20.069 467.502 20.0354 468.283 19.9232C468.867 19.8392 470.734 19.6181 472.553 19.3166L471 9.94443ZM253 221.945L246.282 228.662L322.782 305.162L329.5 298.445L336.217 291.727L259.717 215.227L253 221.945ZM233.5 318.444L242.812 320.326L262.312 223.826L253 221.945L243.688 220.063L224.188 316.563L233.5 318.444ZM233.5 318.444L235.437 327.745L331.437 307.745L329.5 298.445L327.562 289.144L231.562 309.144L233.5 318.444ZM503 124.945L509.717 131.662L514.218 127.162L507.5 120.444L500.783 113.727L496.282 118.227L503 124.945ZM507.5 120.444L514.218 127.162L547.217 94.1621L540.5 87.4446L533.782 80.7271L500.783 113.727L507.5 120.444ZM456.5 16.9446L449.565 10.4519L422.565 39.2913L429.5 45.784L436.435 52.2767L463.435 23.4373L456.5 16.9446ZM429.5 45.784L422.789 39.0601L246.289 215.221L253 221.945L259.711 228.669L436.211 52.508L429.5 45.784ZM507.5 120.444L514.069 113.581L436.069 38.9212L429.5 45.784L422.931 52.6469L500.931 127.307L507.5 120.444ZM539 64.9443L531.702 71.026C532.539 72.0306 533.472 74.2551 533.641 77.1271C533.72 78.4594 533.609 79.6283 533.405 80.5044C533.188 81.4325 532.956 81.6673 533.082 81.51L540.5 87.4446L547.918 93.3791C551.984 88.2966 552.927 81.4317 552.609 76.0115C552.278 70.3835 550.461 63.858 546.298 58.8625L539 64.9443ZM9.5 193.444L15.9536 200.416C26.2513 190.883 32.4995 189.336 35.863 189.689C39.0046 190.019 42.9851 192.394 47.8077 200.042C52.5355 207.541 56.8451 218.189 61.303 231.132C63.5057 237.527 65.6858 244.3 67.9501 251.346C70.2042 258.36 72.5385 265.634 75.0073 272.882C79.9323 287.342 85.5119 302.062 92.4044 315.139C99.2735 328.172 107.742 340.151 118.731 348.624C129.959 357.281 143.518 362.027 159.675 360.857C175.532 359.709 193.209 352.918 213.186 339.904L208 331.944L202.814 323.984C184.416 335.97 169.843 341.071 158.302 341.907C147.06 342.721 138.072 339.545 130.332 333.577C122.352 327.425 115.43 318.076 109.213 306.28C103.019 294.53 97.8176 280.922 92.9926 266.756C90.5864 259.692 88.3035 252.579 86.039 245.533C83.7848 238.518 81.545 231.557 79.2672 224.944C74.7642 211.871 69.8707 199.41 63.8797 189.909C57.9836 180.557 49.7297 172.041 37.8479 170.793C26.188 169.568 14.6237 175.756 3.04642 186.473L9.5 193.444Z" fill="#C4A77D"/>
</svg>
