<svg width="307" height="310" viewBox="0 0 307 310" fill="none" xmlns="http://www.w3.org/2000/svg">
<circle cx="112.5" cy="112.5" r="97" stroke="#C4A77D" stroke-width="31"/>
<path fill-rule="evenodd" clip-rule="evenodd" d="M137.013 51.0016C138.364 48.2817 141.666 47.1717 144.386 48.5231C145.799 49.2253 147.198 49.9787 148.581 50.7818C149.964 51.5851 151.312 52.4276 152.622 53.3072C155.144 55.0003 155.816 58.4172 154.123 60.9391C152.43 63.461 149.013 64.1329 146.491 62.4401C145.379 61.6932 144.233 60.977 143.057 60.2936C141.88 59.6102 140.69 58.9699 139.49 58.3736C136.771 57.0218 135.661 53.7215 137.013 51.0016ZM97.9726 42.4342C107.242 40.559 116.903 40.4883 126.39 42.3766C129.369 42.9696 131.303 45.8662 130.71 48.8453C130.117 51.8241 127.221 53.7586 124.242 53.1656C116.211 51.5671 108.022 51.6248 100.154 53.2164C97.1773 53.8185 94.2754 51.8934 93.6728 48.9166C93.0705 45.9395 94.9955 43.0366 97.9726 42.4342Z" fill="#C4A77D"/>
<path d="M278.013 304.555C284.671 311.175 295.435 311.145 302.055 304.487C308.675 297.829 308.644 287.065 301.986 280.445L290 292.5L278.013 304.555ZM202 205L189.979 217.021L190.013 217.056L202 205ZM290 292.5L301.986 280.445L213.987 192.945L202 205L190.013 217.056L278.013 304.555L290 292.5ZM202 205C214.021 192.98 214.021 192.98 214.021 192.98C214.021 192.979 214.02 192.979 214.02 192.979C214.02 192.979 214.02 192.979 214.02 192.978C214.019 192.978 214.019 192.978 214.019 192.977C214.018 192.977 214.018 192.977 214.017 192.976C214.017 192.976 214.016 192.975 214.016 192.975C214.015 192.974 214.015 192.974 214.014 192.973C214.013 192.972 214.013 192.972 214.012 192.971C214.011 192.97 214.01 192.969 214.01 192.968C214.009 192.968 214.008 192.967 214.007 192.966C214.006 192.965 214.005 192.964 214.004 192.963C214.003 192.962 214.002 192.961 214.001 192.96C214 192.959 213.999 192.958 213.998 192.956C213.996 192.955 213.995 192.954 213.994 192.953C213.993 192.951 213.991 192.95 213.99 192.949C213.988 192.947 213.987 192.946 213.986 192.944C213.984 192.943 213.983 192.942 213.981 192.94C213.98 192.938 213.978 192.937 213.976 192.935C213.975 192.934 213.973 192.932 213.971 192.93C213.97 192.928 213.968 192.927 213.966 192.925C213.964 192.923 213.962 192.921 213.96 192.919C213.959 192.917 213.957 192.915 213.955 192.913C213.953 192.911 213.951 192.909 213.949 192.907C213.946 192.905 213.944 192.903 213.942 192.901C213.94 192.899 213.938 192.897 213.936 192.894C213.933 192.892 213.931 192.89 213.929 192.888C213.926 192.885 213.924 192.883 213.922 192.88C213.919 192.878 213.917 192.876 213.914 192.873C213.912 192.871 213.909 192.868 213.907 192.865C213.904 192.863 213.901 192.86 213.899 192.857C213.896 192.855 213.893 192.852 213.89 192.849C213.888 192.847 213.885 192.844 213.882 192.841C213.879 192.838 213.876 192.835 213.873 192.832C213.87 192.829 213.867 192.826 213.864 192.823C213.861 192.82 213.858 192.817 213.855 192.814C213.852 192.811 213.849 192.808 213.846 192.805C213.843 192.801 213.839 192.798 213.836 192.795C213.833 192.792 213.83 192.788 213.826 192.785C213.823 192.782 213.819 192.778 213.816 192.775C213.813 192.771 213.809 192.768 213.806 192.764C213.802 192.761 213.798 192.757 213.795 192.754C213.791 192.75 213.788 192.746 213.784 192.743C213.78 192.739 213.776 192.735 213.773 192.732C213.769 192.728 213.765 192.724 213.761 192.72C213.757 192.716 213.754 192.712 213.75 192.708C213.746 192.705 213.742 192.701 213.738 192.697C213.734 192.692 213.73 192.688 213.725 192.684C213.721 192.68 213.717 192.676 213.713 192.672C213.709 192.668 213.705 192.664 213.7 192.659C213.696 192.655 213.692 192.651 213.688 192.646C213.683 192.642 213.679 192.638 213.674 192.633C213.67 192.629 213.665 192.624 213.661 192.62C213.656 192.615 213.652 192.611 213.647 192.606C213.643 192.602 213.638 192.597 213.633 192.592C213.629 192.588 213.624 192.583 213.619 192.578C213.615 192.573 213.61 192.569 213.605 192.564C213.6 192.559 213.595 192.554 213.59 192.549C213.586 192.544 213.581 192.539 213.576 192.534C213.571 192.53 213.566 192.524 213.561 192.519C213.556 192.514 213.55 192.509 213.545 192.504C213.54 192.499 213.535 192.494 213.53 192.489C213.525 192.483 213.519 192.478 213.514 192.473C213.509 192.468 213.503 192.462 213.498 192.457C213.493 192.452 213.487 192.446 213.482 192.441C213.476 192.435 213.471 192.43 213.465 192.424C213.46 192.419 213.454 192.413 213.449 192.408C213.443 192.402 213.437 192.396 213.432 192.391C213.426 192.385 213.42 192.379 213.415 192.373C213.409 192.368 213.403 192.362 213.397 192.356C213.391 192.35 213.386 192.344 213.38 192.338C213.374 192.333 213.368 192.327 213.362 192.321C213.356 192.315 213.35 192.309 213.344 192.303C213.338 192.297 213.332 192.29 213.325 192.284C213.319 192.278 213.313 192.272 213.307 192.266C213.301 192.26 213.294 192.253 213.288 192.247C213.282 192.241 213.276 192.234 213.269 192.228C213.263 192.222 213.257 192.215 213.25 192.209C213.244 192.203 213.237 192.196 213.231 192.19C213.224 192.183 213.218 192.177 213.211 192.17C213.204 192.163 213.198 192.157 213.191 192.15C213.185 192.143 213.178 192.137 213.171 192.13C213.164 192.123 213.158 192.117 213.151 192.11C213.144 192.103 213.137 192.096 213.13 192.089C213.124 192.082 213.117 192.075 213.11 192.069C213.103 192.062 213.096 192.055 213.089 192.048C213.082 192.041 213.075 192.034 213.068 192.026C213.061 192.019 213.053 192.012 213.046 192.005C213.039 191.998 213.032 191.991 213.025 191.984C213.017 191.976 213.01 191.969 213.003 191.962C212.996 191.954 212.988 191.947 212.981 191.94C212.974 191.932 212.966 191.925 212.959 191.918C212.951 191.91 212.944 191.903 212.936 191.895C212.929 191.888 212.921 191.88 212.914 191.872C212.906 191.865 212.898 191.857 212.891 191.85C212.883 191.842 212.875 191.834 212.868 191.827C212.86 191.819 212.852 191.811 212.844 191.803C212.837 191.795 212.829 191.788 212.821 191.78C212.813 191.772 212.805 191.764 212.797 191.756C212.789 191.748 212.781 191.74 212.773 191.732C212.765 191.724 212.757 191.716 212.749 191.708C212.741 191.7 212.733 191.692 212.725 191.684C212.717 191.676 212.709 191.668 212.7 191.659C212.692 191.651 212.684 191.643 212.676 191.635C212.668 191.626 212.659 191.618 212.651 191.61C212.643 191.601 212.634 191.593 212.626 191.585C212.617 191.576 212.609 191.568 212.6 191.559C212.592 191.551 212.583 191.542 212.575 191.534C212.566 191.525 212.558 191.517 212.549 191.508C212.541 191.499 212.532 191.491 212.523 191.482C212.515 191.473 212.506 191.465 212.497 191.456C212.488 191.447 212.48 191.439 212.471 191.43C212.462 191.421 212.453 191.412 212.444 191.403C212.436 191.394 212.427 191.385 212.418 191.377C212.409 191.368 212.4 191.359 212.391 191.35C212.382 191.341 212.373 191.332 212.364 191.323C212.355 191.313 212.346 191.304 212.336 191.295C212.327 191.286 212.318 191.277 212.309 191.268C212.3 191.259 212.291 191.249 212.281 191.24C212.272 191.231 212.263 191.222 212.253 191.212C212.244 191.203 212.235 191.194 212.225 191.184C212.216 191.175 212.207 191.165 212.197 191.156C212.188 191.147 212.178 191.137 212.169 191.128C212.159 191.118 212.15 191.108 212.14 191.099C212.13 191.089 212.121 191.08 212.111 191.07C212.102 191.06 212.092 191.051 212.082 191.041C212.073 191.031 212.063 191.022 212.053 191.012C212.043 191.002 212.034 190.992 212.024 190.983C212.014 190.973 212.004 190.963 211.994 190.953C211.984 190.943 211.974 190.933 211.964 190.923C211.954 190.913 211.945 190.903 211.935 190.893C211.925 190.883 211.914 190.873 211.904 190.863C211.894 190.853 211.884 190.843 211.874 190.833C211.864 190.823 211.854 190.813 211.844 190.803C211.833 190.792 211.823 190.782 211.813 190.772C211.803 190.762 211.792 190.751 211.782 190.741C211.772 190.731 211.762 190.72 211.751 190.71C211.741 190.7 211.73 190.689 211.72 190.679C211.71 190.668 211.699 190.658 211.689 190.647C211.678 190.637 211.668 190.627 211.657 190.616C211.647 190.605 211.636 190.595 211.625 190.584C211.615 190.574 211.604 190.563 211.594 190.552C211.583 190.542 211.572 190.531 211.561 190.52C211.551 190.51 211.54 190.499 211.529 190.488C211.518 190.477 211.508 190.466 211.497 190.456C211.486 190.445 211.475 190.434 211.464 190.423C211.453 190.412 211.442 190.401 211.431 190.39C211.421 190.379 211.41 190.368 211.399 190.357C211.388 190.346 211.376 190.335 211.365 190.324C211.354 190.313 211.343 190.302 211.332 190.291C211.321 190.28 211.31 190.269 211.299 190.258C211.288 190.246 211.276 190.235 211.265 190.224C211.254 190.213 211.243 190.202 211.231 190.19C211.22 190.179 211.209 190.168 211.197 190.156C211.186 190.145 211.175 190.134 211.163 190.122C211.152 190.111 211.141 190.099 211.129 190.088C211.118 190.076 211.106 190.065 211.095 190.054C211.083 190.042 211.072 190.03 211.06 190.019C211.048 190.007 211.037 189.996 211.025 189.984C211.014 189.973 211.002 189.961 210.99 189.949C210.979 189.938 210.967 189.926 210.955 189.914C210.944 189.902 210.932 189.891 210.92 189.879C210.908 189.867 210.896 189.855 210.885 189.844C210.873 189.832 210.861 189.82 210.849 189.808C210.837 189.796 210.825 189.784 210.813 189.772C210.801 189.76 210.789 189.748 210.778 189.736C210.766 189.724 210.754 189.712 210.741 189.7C210.729 189.688 210.717 189.676 210.705 189.664C210.693 189.652 210.681 189.64 210.669 189.628C210.657 189.616 210.645 189.604 210.632 189.591C210.62 189.579 210.608 189.567 210.596 189.555C210.584 189.542 210.571 189.53 210.559 189.518C210.547 189.506 210.534 189.493 210.522 189.481C210.51 189.469 210.497 189.456 210.485 189.444C210.473 189.431 210.46 189.419 210.448 189.407C210.435 189.394 210.423 189.382 210.41 189.369C210.398 189.357 210.385 189.344 210.373 189.332C210.36 189.319 210.348 189.306 210.335 189.294C210.322 189.281 210.31 189.269 210.297 189.256C210.285 189.243 210.272 189.231 210.259 189.218C210.246 189.205 210.234 189.193 210.221 189.18C210.208 189.167 210.196 189.154 210.183 189.142C210.17 189.129 210.157 189.116 210.144 189.103C210.131 189.09 210.119 189.077 210.106 189.065C210.093 189.052 210.08 189.039 210.067 189.026C210.054 189.013 210.041 189 210.028 188.987C210.015 188.974 210.002 188.961 209.989 188.948C209.976 188.935 209.963 188.922 209.95 188.909C209.937 188.896 209.924 188.883 209.911 188.87C209.898 188.856 209.884 188.843 209.871 188.83C209.858 188.817 209.845 188.804 209.832 188.791C209.818 188.777 209.805 188.764 209.792 188.751C209.779 188.738 209.765 188.724 209.752 188.711C209.739 188.698 209.725 188.684 209.712 188.671C209.699 188.658 209.685 188.644 209.672 188.631C209.659 188.617 209.645 188.604 209.632 188.591C209.618 188.577 209.605 188.564 209.591 188.55C209.578 188.537 209.564 188.523 209.551 188.51C209.537 188.496 209.524 188.483 209.51 188.469C209.497 188.455 209.483 188.442 209.469 188.428C209.456 188.415 209.442 188.401 209.428 188.387C209.415 188.374 209.401 188.36 209.387 188.346C209.374 188.333 209.36 188.319 209.346 188.305C209.332 188.291 209.319 188.278 209.305 188.264C209.291 188.25 209.277 188.236 209.263 188.222C209.25 188.209 209.236 188.195 209.222 188.181C209.208 188.167 209.194 188.153 209.18 188.139C209.166 188.125 209.152 188.111 209.138 188.097C209.124 188.083 209.11 188.069 209.096 188.055C209.082 188.041 209.068 188.027 209.054 188.013C209.04 187.999 209.026 187.985 209.012 187.971C208.998 187.957 208.984 187.943 208.97 187.929C208.956 187.915 208.942 187.9 208.927 187.886C208.913 187.872 208.899 187.858 208.885 187.844C208.871 187.83 208.856 187.815 208.842 187.801C208.828 187.787 208.814 187.773 208.799 187.758C208.785 187.744 208.771 187.73 208.756 187.715C208.742 187.701 208.728 187.687 208.713 187.672C208.699 187.658 208.685 187.644 208.67 187.629C208.656 187.615 208.641 187.6 208.627 187.586C208.613 187.571 208.598 187.557 208.584 187.542C208.569 187.528 208.555 187.513 208.54 187.499C208.526 187.484 208.511 187.47 208.496 187.455C208.482 187.441 208.467 187.426 208.453 187.412C208.438 187.397 208.423 187.382 208.409 187.368C208.394 187.353 208.38 187.338 208.365 187.324C208.35 187.309 208.335 187.294 208.321 187.28C208.306 187.265 208.291 187.25 208.277 187.235C208.262 187.221 208.247 187.206 208.232 187.191C208.217 187.176 208.203 187.162 208.188 187.147C208.173 187.132 208.158 187.117 208.143 187.102C208.128 187.087 208.114 187.072 208.099 187.058C208.084 187.043 208.069 187.028 208.054 187.013C208.039 186.998 208.024 186.983 208.009 186.968C207.994 186.953 207.979 186.938 207.964 186.923C207.949 186.908 207.934 186.893 207.919 186.878C207.904 186.863 207.889 186.848 207.874 186.833C207.859 186.818 207.844 186.803 207.829 186.788C207.814 186.772 207.798 186.757 207.783 186.742C207.768 186.727 207.753 186.712 207.738 186.697C207.723 186.682 207.707 186.666 207.692 186.651C207.677 186.636 207.662 186.621 207.647 186.605C207.631 186.59 207.616 186.575 207.601 186.56C207.586 186.544 207.57 186.529 207.555 186.514C207.54 186.498 207.524 186.483 207.509 186.468C207.494 186.452 207.478 186.437 207.463 186.422C207.447 186.406 207.432 186.391 207.417 186.376C207.401 186.36 207.386 186.345 207.37 186.329C207.355 186.314 207.34 186.298 207.324 186.283C207.309 186.267 207.293 186.252 207.278 186.236C207.262 186.221 207.247 186.205 207.231 186.19C207.215 186.174 207.2 186.159 207.184 186.143C207.169 186.128 207.153 186.112 207.138 186.096C207.122 186.081 207.106 186.065 207.091 186.05C207.075 186.034 207.06 186.018 207.044 186.003C207.028 185.987 207.013 185.971 206.997 185.956C206.981 185.94 206.965 185.924 206.95 185.909C206.934 185.893 206.918 185.877 206.903 185.861C206.887 185.846 206.871 185.83 206.855 185.814C206.839 185.798 206.824 185.783 206.808 185.767C206.792 185.751 206.776 185.735 206.76 185.719C206.745 185.703 206.729 185.688 206.713 185.672C206.697 185.656 206.681 185.64 206.665 185.624C206.649 185.608 206.633 185.592 206.618 185.576C206.602 185.56 206.586 185.545 206.57 185.529C206.554 185.513 206.538 185.497 206.522 185.481C206.506 185.465 206.49 185.449 206.474 185.433C206.458 185.417 206.442 185.401 206.426 185.385C206.41 185.369 206.394 185.353 206.378 185.337C206.362 185.32 206.346 185.304 206.329 185.288C206.313 185.272 206.297 185.256 206.281 185.24C206.265 185.224 206.249 185.208 206.233 185.192C206.217 185.176 206.201 185.159 206.184 185.143C206.168 185.127 206.152 185.111 206.136 185.095C206.12 185.079 206.103 185.062 206.087 185.046C206.071 185.03 206.055 185.014 206.039 184.997C206.022 184.981 206.006 184.965 205.99 184.949C205.974 184.932 205.957 184.916 205.941 184.9C205.925 184.884 205.908 184.867 205.892 184.851C205.876 184.835 205.859 184.818 205.843 184.802C205.827 184.786 205.81 184.769 205.794 184.753C205.778 184.737 205.761 184.72 205.745 184.704C205.729 184.687 205.712 184.671 205.696 184.655C205.679 184.638 205.663 184.622 205.646 184.605C205.63 184.589 205.614 184.572 205.597 184.556C205.581 184.54 205.564 184.523 205.548 184.507C205.531 184.49 205.515 184.474 205.498 184.457C205.482 184.441 205.465 184.424 205.449 184.408C205.432 184.391 205.416 184.375 205.399 184.358C205.383 184.341 205.366 184.325 205.349 184.308C205.333 184.292 205.316 184.275 205.3 184.259C205.283 184.242 205.267 184.225 205.25 184.209C205.233 184.192 205.217 184.176 205.2 184.159C205.183 184.142 205.167 184.126 205.15 184.109C205.134 184.092 205.117 184.076 205.1 184.059C205.084 184.042 205.067 184.026 205.05 184.009C205.033 183.992 205.017 183.976 205 183.959C204.983 183.942 204.967 183.925 204.95 183.909C204.933 183.892 204.916 183.875 204.9 183.859C204.883 183.842 204.866 183.825 204.849 183.808C204.833 183.791 204.816 183.775 204.799 183.758C204.782 183.741 204.765 183.724 204.749 183.707C204.732 183.691 204.715 183.674 204.698 183.657C204.681 183.64 204.665 183.623 204.648 183.607C204.631 183.59 204.614 183.573 204.597 183.556C204.58 183.539 204.563 183.522 204.546 183.505C204.53 183.488 204.513 183.472 204.496 183.455C204.479 183.438 204.462 183.421 204.445 183.404C204.428 183.387 204.411 183.37 204.394 183.353C204.377 183.336 204.36 183.319 204.343 183.302C204.327 183.285 204.31 183.268 204.293 183.251C204.276 183.235 204.259 183.218 204.242 183.201C204.225 183.184 204.208 183.167 204.191 183.15C204.174 183.133 204.157 183.116 204.14 183.099C204.123 183.082 204.106 183.065 204.089 183.047C204.072 183.03 204.055 183.013 204.038 182.996C204.02 182.979 204.003 182.962 203.986 182.945C203.969 182.928 203.952 182.911 203.935 182.894C203.918 182.877 203.901 182.86 203.884 182.843C203.867 182.826 203.85 182.809 203.833 182.791C203.816 182.774 203.798 182.757 203.781 182.74C203.764 182.723 203.747 182.706 203.73 182.689C203.713 182.672 203.696 182.654 203.678 182.637C203.661 182.62 203.644 182.603 203.627 182.586C203.61 182.569 203.593 182.552 203.576 182.534C203.558 182.517 203.541 182.5 203.524 182.483C203.507 182.466 203.49 182.448 203.472 182.431C203.455 182.414 203.438 182.397 203.421 182.38C203.404 182.362 203.386 182.345 203.369 182.328C203.352 182.311 203.335 182.294 203.317 182.276C203.3 182.259 203.283 182.242 203.266 182.225C203.248 182.207 203.231 182.19 203.214 182.173C203.197 182.156 203.179 182.138 203.162 182.121C203.145 182.104 203.128 182.087 203.11 182.069C203.093 182.052 203.076 182.035 203.059 182.017C203.041 182 203.024 181.983 203.007 181.965C202.989 181.948 202.972 181.931 202.955 181.914C202.937 181.896 202.92 181.879 202.903 181.862C202.885 181.844 202.868 181.827 202.851 181.81C202.833 181.792 202.816 181.775 202.799 181.758C202.781 181.74 202.764 181.723 202.747 181.706C202.729 181.688 202.712 181.671 202.695 181.654C202.677 181.636 202.66 181.619 202.643 181.601C202.625 181.584 202.608 181.567 202.59 181.549C202.573 181.532 202.556 181.515 202.538 181.497C202.521 181.48 202.504 181.462 202.486 181.445C202.469 181.428 202.451 181.41 202.434 181.393C202.417 181.375 202.399 181.358 202.382 181.341C202.364 181.323 202.347 181.306 202.33 181.288C202.312 181.271 202.295 181.254 202.277 181.236C202.26 181.219 202.242 181.201 202.225 181.184C202.208 181.166 202.19 181.149 202.173 181.132C202.155 181.114 202.138 181.097 202.12 181.079C202.103 181.062 202.086 181.044 202.068 181.027C202.051 181.01 202.033 180.992 202.016 180.975C201.998 180.957 201.981 180.94 201.963 180.922C201.946 180.905 201.928 180.887 201.911 180.87C201.894 180.852 201.876 180.835 201.859 180.817C201.841 180.8 201.824 180.783 201.806 180.765C201.789 180.748 201.771 180.73 201.754 180.713C201.736 180.695 201.719 180.678 201.701 180.66C201.684 180.643 201.666 180.625 201.649 180.608C201.631 180.59 201.614 180.573 201.596 180.555C201.579 180.538 201.561 180.52 201.544 180.503C201.526 180.485 201.509 180.468 201.491 180.45C201.474 180.433 201.456 180.415 201.439 180.398C201.421 180.38 201.404 180.363 201.386 180.345C201.369 180.328 201.351 180.31 201.334 180.293C201.316 180.275 201.299 180.258 201.281 180.24C201.264 180.223 201.246 180.205 201.229 180.188C201.211 180.17 201.194 180.153 201.176 180.135C201.159 180.118 201.141 180.1 201.124 180.083C201.106 180.065 201.089 180.048 201.071 180.03C201.054 180.013 201.036 179.995 201.019 179.978C201.001 179.96 200.984 179.943 200.966 179.925C200.949 179.908 200.931 179.89 200.914 179.873C200.896 179.855 200.879 179.838 200.861 179.82C200.844 179.803 200.826 179.785 200.809 179.767C200.791 179.75 200.774 179.732 200.756 179.715C200.739 179.697 200.721 179.68 200.704 179.662C200.686 179.645 200.669 179.627 200.651 179.61C200.633 179.592 200.616 179.575 200.598 179.557C200.581 179.54 200.563 179.522 200.546 179.505C200.528 179.487 200.511 179.47 200.493 179.452C200.476 179.435 200.458 179.417 200.441 179.4C200.423 179.382 200.406 179.365 200.388 179.347C200.371 179.33 200.353 179.312 200.336 179.295C200.318 179.277 200.301 179.26 200.283 179.242C200.266 179.225 200.248 179.207 200.231 179.19C200.213 179.172 200.196 179.155 200.178 179.137C200.161 179.12 200.143 179.102 200.126 179.085C200.108 179.067 200.091 179.05 200.073 179.032C200.056 179.015 200.038 178.997 200.021 178.98C200.003 178.962 199.986 178.945 199.968 178.927C199.951 178.91 199.933 178.892 199.916 178.875C199.899 178.857 199.881 178.84 199.864 178.822C199.846 178.805 199.829 178.787 199.811 178.77C199.794 178.753 199.776 178.735 199.759 178.718C199.741 178.7 199.724 178.683 199.706 178.665C199.689 178.648 199.671 178.63 199.654 178.613C199.637 178.595 199.619 178.578 199.602 178.561C199.584 178.543 199.567 178.526 199.549 178.508C199.532 178.491 199.514 178.473 199.497 178.456C199.48 178.438 199.462 178.421 199.445 178.404C199.427 178.386 199.41 178.369 199.392 178.351C199.375 178.334 199.358 178.316 199.34 178.299C199.323 178.282 199.305 178.264 199.288 178.247C199.271 178.229 199.253 178.212 199.236 178.195C199.218 178.177 199.201 178.16 199.184 178.142C199.166 178.125 199.149 178.108 199.131 178.09C199.114 178.073 199.097 178.055 199.079 178.038C199.062 178.021 199.044 178.003 199.027 177.986C199.01 177.969 198.992 177.951 198.975 177.934C198.958 177.916 198.94 177.899 198.923 177.882C198.906 177.864 198.888 177.847 198.871 177.83C198.854 177.812 198.836 177.795 198.819 177.778C198.802 177.76 198.784 177.743 198.767 177.726C198.75 177.708 198.732 177.691 198.715 177.674C198.698 177.656 198.68 177.639 198.663 177.622C198.646 177.605 198.628 177.587 198.611 177.57C198.594 177.553 198.576 177.535 198.559 177.518C198.542 177.501 198.525 177.483 198.507 177.466C198.49 177.449 198.473 177.432 198.456 177.414C198.438 177.397 198.421 177.38 198.404 177.363C198.387 177.345 198.369 177.328 198.352 177.311C198.335 177.294 198.318 177.276 198.3 177.259C198.283 177.242 198.266 177.225 198.249 177.208C198.231 177.19 198.214 177.173 198.197 177.156C198.18 177.139 198.163 177.122 198.145 177.104C198.128 177.087 198.111 177.07 198.094 177.053C198.077 177.036 198.06 177.018 198.042 177.001C198.025 176.984 198.008 176.967 197.991 176.95C197.974 176.933 197.957 176.916 197.94 176.898C197.922 176.881 197.905 176.864 197.888 176.847C197.871 176.83 197.854 176.813 197.837 176.796C197.82 176.779 197.803 176.761 197.785 176.744C197.768 176.727 197.751 176.71 197.734 176.693C197.717 176.676 197.7 176.659 197.683 176.642C197.666 176.625 197.649 176.608 197.632 176.591C197.615 176.574 197.598 176.557 197.581 176.54C197.564 176.522 197.547 176.505 197.53 176.488C197.513 176.471 197.496 176.454 197.479 176.437C197.462 176.42 197.445 176.403 197.428 176.386C197.411 176.369 197.394 176.352 197.377 176.335C197.36 176.318 197.343 176.302 197.326 176.285C197.309 176.268 197.292 176.251 197.275 176.234C197.258 176.217 197.241 176.2 197.224 176.183C197.207 176.166 197.19 176.149 197.173 176.132C197.156 176.115 197.14 176.098 197.123 176.082C197.106 176.065 197.089 176.048 197.072 176.031C197.055 176.014 197.038 175.997 197.021 175.98C197.005 175.963 196.988 175.947 196.971 175.93C196.954 175.913 196.937 175.896 196.92 175.879C196.904 175.862 196.887 175.846 196.87 175.829C196.853 175.812 196.836 175.795 196.82 175.779C196.803 175.762 196.786 175.745 196.769 175.728C196.753 175.711 196.736 175.695 196.719 175.678C196.702 175.661 196.686 175.644 196.669 175.628C196.652 175.611 196.635 175.594 196.619 175.578C196.602 175.561 196.585 175.544 196.569 175.528C196.552 175.511 196.535 175.494 196.519 175.478C196.502 175.461 196.485 175.444 196.469 175.428C196.452 175.411 196.436 175.394 196.419 175.378C196.402 175.361 196.386 175.345 196.369 175.328C196.352 175.311 196.336 175.295 196.319 175.278C196.303 175.262 196.286 175.245 196.27 175.228C196.253 175.212 196.237 175.195 196.22 175.179C196.203 175.162 196.187 175.146 196.17 175.129C196.154 175.113 196.137 175.096 196.121 175.08C196.104 175.063 196.088 175.047 196.072 175.03C196.055 175.014 196.039 174.997 196.022 174.981C196.006 174.965 195.989 174.948 195.973 174.932C195.956 174.915 195.94 174.899 195.924 174.883C195.907 174.866 195.891 174.85 195.875 174.833C195.858 174.817 195.842 174.801 195.825 174.784C195.809 174.768 195.793 174.752 195.776 174.735C195.76 174.719 195.744 174.703 195.728 174.686C195.711 174.67 195.695 174.654 195.679 174.638C195.662 174.621 195.646 174.605 195.63 174.589C195.614 174.573 195.597 174.556 195.581 174.54C195.565 174.524 195.549 174.508 195.533 174.491C195.516 174.475 195.5 174.459 195.484 174.443C195.468 174.427 195.452 174.411 195.436 174.394C195.419 174.378 195.403 174.362 195.387 174.346C195.371 174.33 195.355 174.314 195.339 174.298C195.323 174.282 195.307 174.265 195.291 174.249C195.274 174.233 195.258 174.217 195.242 174.201C195.226 174.185 195.21 174.169 195.194 174.153C195.178 174.137 195.162 174.121 195.146 174.105C195.13 174.089 195.114 174.073 195.098 174.057C195.082 174.041 195.067 174.025 195.051 174.009C195.035 173.994 195.019 173.978 195.003 173.962C194.987 173.946 194.971 173.93 194.955 173.914C194.939 173.898 194.923 173.882 194.908 173.866C194.892 173.851 194.876 173.835 194.86 173.819C194.844 173.803 194.828 173.787 194.813 173.772C194.797 173.756 194.781 173.74 194.765 173.724C194.75 173.708 194.734 173.693 194.718 173.677C194.702 173.661 194.687 173.646 194.671 173.63C194.655 173.614 194.64 173.598 194.624 173.583C194.608 173.567 194.593 173.551 194.577 173.536C194.561 173.52 194.546 173.505 194.53 173.489C194.515 173.473 194.499 173.458 194.483 173.442C194.468 173.427 194.452 173.411 194.437 173.396C194.421 173.38 194.406 173.364 194.39 173.349C194.375 173.333 194.359 173.318 194.344 173.302C194.328 173.287 194.313 173.271 194.297 173.256C194.282 173.241 194.266 173.225 194.251 173.21C194.235 173.194 194.22 173.179 194.205 173.164C194.189 173.148 194.174 173.133 194.159 173.117C194.143 173.102 194.128 173.087 194.113 173.071C194.097 173.056 194.082 173.041 194.067 173.025C194.051 173.01 194.036 172.995 194.021 172.98L182 185L169.979 197.021C169.994 197.037 170.01 197.052 170.025 197.067C170.04 197.082 170.056 197.098 170.071 197.113C170.086 197.128 170.102 197.144 170.117 197.159C170.132 197.174 170.148 197.19 170.163 197.205C170.178 197.221 170.194 197.236 170.209 197.251C170.225 197.267 170.24 197.282 170.256 197.298C170.271 197.313 170.286 197.329 170.302 197.344C170.317 197.36 170.333 197.375 170.348 197.391C170.364 197.406 170.379 197.422 170.395 197.437C170.411 197.453 170.426 197.468 170.442 197.484C170.457 197.499 170.473 197.515 170.488 197.531C170.504 197.546 170.52 197.562 170.535 197.577C170.551 197.593 170.567 197.609 170.582 197.624C170.598 197.64 170.614 197.656 170.629 197.671C170.645 197.687 170.661 197.703 170.677 197.719C170.692 197.734 170.708 197.75 170.724 197.766C170.739 197.782 170.755 197.797 170.771 197.813C170.787 197.829 170.803 197.845 170.818 197.861C170.834 197.876 170.85 197.892 170.866 197.908C170.882 197.924 170.898 197.94 170.914 197.956C170.929 197.972 170.945 197.987 170.961 198.003C170.977 198.019 170.993 198.035 171.009 198.051C171.025 198.067 171.041 198.083 171.057 198.099C171.073 198.115 171.089 198.131 171.105 198.147C171.121 198.163 171.137 198.179 171.153 198.195C171.169 198.211 171.185 198.227 171.201 198.243C171.217 198.259 171.233 198.275 171.249 198.291C171.265 198.307 171.281 198.323 171.297 198.339C171.313 198.355 171.329 198.371 171.345 198.388C171.362 198.404 171.378 198.42 171.394 198.436C171.41 198.452 171.426 198.468 171.442 198.484C171.459 198.501 171.475 198.517 171.491 198.533C171.507 198.549 171.523 198.565 171.54 198.582C171.556 198.598 171.572 198.614 171.588 198.63C171.605 198.647 171.621 198.663 171.637 198.679C171.653 198.695 171.67 198.712 171.686 198.728C171.702 198.744 171.719 198.761 171.735 198.777C171.751 198.793 171.767 198.81 171.784 198.826C171.8 198.842 171.817 198.859 171.833 198.875C171.849 198.891 171.866 198.908 171.882 198.924C171.898 198.941 171.915 198.957 171.931 198.973C171.948 198.99 171.964 199.006 171.981 199.023C171.997 199.039 172.013 199.056 172.03 199.072C172.046 199.088 172.063 199.105 172.079 199.121C172.096 199.138 172.112 199.154 172.129 199.171C172.145 199.187 172.162 199.204 172.178 199.22C172.195 199.237 172.211 199.254 172.228 199.27C172.245 199.287 172.261 199.303 172.278 199.32C172.294 199.336 172.311 199.353 172.327 199.37C172.344 199.386 172.361 199.403 172.377 199.419C172.394 199.436 172.411 199.453 172.427 199.469C172.444 199.486 172.46 199.503 172.477 199.519C172.494 199.536 172.51 199.553 172.527 199.569C172.544 199.586 172.56 199.603 172.577 199.619C172.594 199.636 172.611 199.653 172.627 199.669C172.644 199.686 172.661 199.703 172.677 199.72C172.694 199.736 172.711 199.753 172.728 199.77C172.744 199.787 172.761 199.803 172.778 199.82C172.795 199.837 172.812 199.854 172.828 199.871C172.845 199.887 172.862 199.904 172.879 199.921C172.896 199.938 172.912 199.955 172.929 199.971C172.946 199.988 172.963 200.005 172.98 200.022C172.997 200.039 173.014 200.056 173.03 200.073C173.047 200.089 173.064 200.106 173.081 200.123C173.098 200.14 173.115 200.157 173.132 200.174C173.149 200.191 173.166 200.208 173.182 200.225C173.199 200.241 173.216 200.258 173.233 200.275C173.25 200.292 173.267 200.309 173.284 200.326C173.301 200.343 173.318 200.36 173.335 200.377C173.352 200.394 173.369 200.411 173.386 200.428C173.403 200.445 173.42 200.462 173.437 200.479C173.454 200.496 173.471 200.513 173.488 200.53C173.505 200.547 173.522 200.564 173.539 200.581C173.556 200.598 173.573 200.615 173.59 200.632C173.607 200.649 173.624 200.666 173.641 200.683C173.658 200.701 173.675 200.718 173.693 200.735C173.71 200.752 173.727 200.769 173.744 200.786C173.761 200.803 173.778 200.82 173.795 200.837C173.812 200.854 173.829 200.871 173.846 200.889C173.864 200.906 173.881 200.923 173.898 200.94C173.915 200.957 173.932 200.974 173.949 200.991C173.966 201.009 173.984 201.026 174.001 201.043C174.018 201.06 174.035 201.077 174.052 201.094C174.069 201.112 174.087 201.129 174.104 201.146C174.121 201.163 174.138 201.18 174.155 201.198C174.173 201.215 174.19 201.232 174.207 201.249C174.224 201.266 174.241 201.284 174.259 201.301C174.276 201.318 174.293 201.335 174.31 201.353C174.328 201.37 174.345 201.387 174.362 201.404C174.379 201.422 174.397 201.439 174.414 201.456C174.431 201.473 174.448 201.491 174.466 201.508C174.483 201.525 174.5 201.542 174.518 201.56C174.535 201.577 174.552 201.594 174.569 201.612C174.587 201.629 174.604 201.646 174.621 201.663C174.639 201.681 174.656 201.698 174.673 201.715C174.691 201.733 174.708 201.75 174.725 201.767C174.743 201.785 174.76 201.802 174.777 201.819C174.795 201.837 174.812 201.854 174.829 201.871C174.847 201.889 174.864 201.906 174.881 201.923C174.899 201.941 174.916 201.958 174.933 201.975C174.951 201.993 174.968 202.01 174.985 202.028C175.003 202.045 175.02 202.062 175.038 202.08C175.055 202.097 175.072 202.114 175.09 202.132C175.107 202.149 175.124 202.167 175.142 202.184C175.159 202.201 175.177 202.219 175.194 202.236C175.211 202.254 175.229 202.271 175.246 202.288C175.264 202.306 175.281 202.323 175.299 202.341C175.316 202.358 175.333 202.375 175.351 202.393C175.368 202.41 175.386 202.428 175.403 202.445C175.42 202.463 175.438 202.48 175.455 202.497C175.473 202.515 175.49 202.532 175.508 202.55C175.525 202.567 175.543 202.585 175.56 202.602C175.577 202.62 175.595 202.637 175.612 202.654C175.63 202.672 175.647 202.689 175.665 202.707C175.682 202.724 175.7 202.742 175.717 202.759C175.735 202.777 175.752 202.794 175.77 202.812C175.787 202.829 175.804 202.847 175.822 202.864C175.839 202.882 175.857 202.899 175.874 202.916C175.892 202.934 175.909 202.951 175.927 202.969C175.944 202.986 175.962 203.004 175.979 203.021C175.997 203.039 176.014 203.056 176.032 203.074C176.049 203.091 176.067 203.109 176.084 203.126C176.102 203.144 176.119 203.161 176.137 203.179C176.154 203.196 176.172 203.214 176.189 203.231C176.207 203.249 176.224 203.266 176.242 203.284C176.259 203.301 176.277 203.319 176.294 203.336C176.312 203.354 176.329 203.371 176.347 203.389C176.364 203.406 176.382 203.424 176.399 203.441C176.417 203.459 176.434 203.476 176.452 203.494C176.469 203.511 176.487 203.529 176.504 203.546C176.522 203.564 176.539 203.581 176.557 203.599C176.574 203.616 176.592 203.634 176.609 203.651C176.627 203.669 176.644 203.687 176.662 203.704C176.679 203.722 176.697 203.739 176.714 203.757C176.732 203.774 176.749 203.792 176.767 203.809C176.785 203.827 176.802 203.844 176.82 203.862C176.837 203.879 176.855 203.897 176.872 203.914C176.89 203.932 176.907 203.949 176.925 203.967C176.942 203.984 176.96 204.002 176.977 204.019C176.995 204.037 177.012 204.054 177.03 204.072C177.047 204.089 177.065 204.107 177.082 204.124C177.1 204.142 177.117 204.159 177.135 204.177C177.152 204.194 177.17 204.212 177.187 204.229C177.205 204.247 177.222 204.264 177.24 204.282C177.257 204.299 177.275 204.317 177.292 204.334C177.31 204.352 177.327 204.369 177.345 204.387C177.362 204.404 177.38 204.422 177.397 204.439C177.415 204.457 177.432 204.474 177.45 204.492C177.467 204.509 177.485 204.527 177.502 204.544C177.52 204.562 177.537 204.579 177.555 204.597C177.572 204.614 177.59 204.632 177.607 204.649C177.625 204.667 177.642 204.684 177.66 204.702C177.677 204.719 177.695 204.737 177.712 204.754C177.73 204.772 177.747 204.789 177.765 204.807C177.782 204.824 177.8 204.842 177.817 204.859C177.834 204.877 177.852 204.894 177.869 204.912C177.887 204.929 177.904 204.946 177.922 204.964C177.939 204.981 177.957 204.999 177.974 205.016C177.992 205.034 178.009 205.051 178.026 205.069C178.044 205.086 178.061 205.103 178.079 205.121C178.096 205.138 178.114 205.156 178.131 205.173C178.149 205.191 178.166 205.208 178.183 205.226C178.201 205.243 178.218 205.26 178.236 205.278C178.253 205.295 178.271 205.313 178.288 205.33C178.305 205.347 178.323 205.365 178.34 205.382C178.358 205.4 178.375 205.417 178.392 205.434C178.41 205.452 178.427 205.469 178.445 205.487C178.462 205.504 178.479 205.521 178.497 205.539C178.514 205.556 178.531 205.574 178.549 205.591C178.566 205.608 178.584 205.626 178.601 205.643C178.618 205.66 178.636 205.678 178.653 205.695C178.67 205.713 178.688 205.73 178.705 205.747C178.722 205.765 178.74 205.782 178.757 205.799C178.774 205.817 178.792 205.834 178.809 205.851C178.826 205.869 178.844 205.886 178.861 205.903C178.878 205.921 178.896 205.938 178.913 205.955C178.93 205.973 178.948 205.99 178.965 206.007C178.982 206.024 179 206.042 179.017 206.059C179.034 206.076 179.051 206.094 179.069 206.111C179.086 206.128 179.103 206.145 179.121 206.163C179.138 206.18 179.155 206.197 179.172 206.214C179.19 206.232 179.207 206.249 179.224 206.266C179.241 206.283 179.259 206.301 179.276 206.318C179.293 206.335 179.31 206.352 179.328 206.37C179.345 206.387 179.362 206.404 179.379 206.421C179.396 206.439 179.414 206.456 179.431 206.473C179.448 206.49 179.465 206.507 179.482 206.524C179.5 206.542 179.517 206.559 179.534 206.576C179.551 206.593 179.568 206.61 179.585 206.628C179.603 206.645 179.62 206.662 179.637 206.679C179.654 206.696 179.671 206.713 179.688 206.73C179.705 206.748 179.723 206.765 179.74 206.782C179.757 206.799 179.774 206.816 179.791 206.833C179.808 206.85 179.825 206.867 179.842 206.884C179.859 206.901 179.876 206.919 179.894 206.936C179.911 206.953 179.928 206.97 179.945 206.987C179.962 207.004 179.979 207.021 179.996 207.038C180.013 207.055 180.03 207.072 180.047 207.089C180.064 207.106 180.081 207.123 180.098 207.14C180.115 207.157 180.132 207.174 180.149 207.191C180.166 207.208 180.183 207.225 180.2 207.242C180.217 207.259 180.234 207.276 180.251 207.293C180.268 207.31 180.285 207.327 180.302 207.344C180.319 207.361 180.336 207.378 180.353 207.395C180.37 207.412 180.387 207.429 180.403 207.446C180.42 207.462 180.437 207.479 180.454 207.496C180.471 207.513 180.488 207.53 180.505 207.547C180.522 207.564 180.539 207.581 180.555 207.598C180.572 207.614 180.589 207.631 180.606 207.648C180.623 207.665 180.64 207.682 180.657 207.699C180.673 207.715 180.69 207.732 180.707 207.749C180.724 207.766 180.741 207.783 180.757 207.8C180.774 207.816 180.791 207.833 180.808 207.85C180.825 207.867 180.841 207.883 180.858 207.9C180.875 207.917 180.892 207.934 180.908 207.95C180.925 207.967 180.942 207.984 180.958 208.001C180.975 208.017 180.992 208.034 181.009 208.051C181.025 208.067 181.042 208.084 181.059 208.101C181.075 208.117 181.092 208.134 181.109 208.151C181.125 208.167 181.142 208.184 181.158 208.201C181.175 208.217 181.192 208.234 181.208 208.25C181.225 208.267 181.242 208.284 181.258 208.3C181.275 208.317 181.291 208.333 181.308 208.35C181.324 208.367 181.341 208.383 181.358 208.4C181.374 208.416 181.391 208.433 181.407 208.449C181.424 208.466 181.44 208.482 181.457 208.499C181.473 208.515 181.49 208.532 181.506 208.548C181.523 208.565 181.539 208.581 181.556 208.598C181.572 208.614 181.588 208.631 181.605 208.647C181.621 208.663 181.638 208.68 181.654 208.696C181.671 208.713 181.687 208.729 181.703 208.745C181.72 208.762 181.736 208.778 181.752 208.795C181.769 208.811 181.785 208.827 181.801 208.844C181.818 208.86 181.834 208.876 181.85 208.893C181.867 208.909 181.883 208.925 181.899 208.941C181.916 208.958 181.932 208.974 181.948 208.99C181.964 209.007 181.981 209.023 181.997 209.039C182.013 209.055 182.029 209.072 182.046 209.088C182.062 209.104 182.078 209.12 182.094 209.136C182.11 209.153 182.127 209.169 182.143 209.185C182.159 209.201 182.175 209.217 182.191 209.233C182.207 209.249 182.223 209.266 182.24 209.282C182.256 209.298 182.272 209.314 182.288 209.33C182.304 209.346 182.32 209.362 182.336 209.378C182.352 209.394 182.368 209.41 182.384 209.426C182.4 209.442 182.416 209.458 182.432 209.474C182.448 209.49 182.464 209.506 182.48 209.522C182.496 209.538 182.512 209.554 182.528 209.57C182.544 209.586 182.56 209.602 182.576 209.618C182.592 209.634 182.608 209.65 182.624 209.666C182.64 209.682 182.655 209.698 182.671 209.713C182.687 209.729 182.703 209.745 182.719 209.761C182.735 209.777 182.75 209.793 182.766 209.808C182.782 209.824 182.798 209.84 182.814 209.856C182.829 209.872 182.845 209.887 182.861 209.903C182.877 209.919 182.892 209.935 182.908 209.95C182.924 209.966 182.94 209.982 182.955 209.997C182.971 210.013 182.987 210.029 183.002 210.044C183.018 210.06 183.034 210.076 183.049 210.091C183.065 210.107 183.08 210.123 183.096 210.138C183.112 210.154 183.127 210.169 183.143 210.185C183.158 210.2 183.174 210.216 183.189 210.232C183.205 210.247 183.22 210.263 183.236 210.278C183.251 210.294 183.267 210.309 183.282 210.325C183.298 210.34 183.313 210.355 183.329 210.371C183.344 210.386 183.36 210.402 183.375 210.417C183.39 210.433 183.406 210.448 183.421 210.463C183.437 210.479 183.452 210.494 183.467 210.509C183.483 210.525 183.498 210.54 183.513 210.555C183.529 210.571 183.544 210.586 183.559 210.601C183.574 210.617 183.59 210.632 183.605 210.647C183.62 210.662 183.635 210.678 183.651 210.693C183.666 210.708 183.681 210.723 183.696 210.738C183.711 210.753 183.727 210.769 183.742 210.784C183.757 210.799 183.772 210.814 183.787 210.829C183.802 210.844 183.817 210.859 183.832 210.874C183.847 210.889 183.862 210.905 183.877 210.92C183.893 210.935 183.908 210.95 183.923 210.965C183.938 210.98 183.953 210.995 183.967 211.01C183.982 211.025 183.997 211.04 184.012 211.054C184.027 211.069 184.042 211.084 184.057 211.099C184.072 211.114 184.087 211.129 184.102 211.144C184.117 211.159 184.131 211.174 184.146 211.188C184.161 211.203 184.176 211.218 184.191 211.233C184.205 211.248 184.22 211.262 184.235 211.277C184.25 211.292 184.264 211.307 184.279 211.321C184.294 211.336 184.309 211.351 184.323 211.365C184.338 211.38 184.353 211.395 184.367 211.409C184.382 211.424 184.396 211.439 184.411 211.453C184.426 211.468 184.44 211.482 184.455 211.497C184.469 211.511 184.484 211.526 184.498 211.541C184.513 211.555 184.527 211.57 184.542 211.584C184.556 211.599 184.571 211.613 184.585 211.627C184.6 211.642 184.614 211.656 184.629 211.671C184.643 211.685 184.657 211.7 184.672 211.714C184.686 211.728 184.7 211.743 184.715 211.757C184.729 211.771 184.743 211.786 184.758 211.8C184.772 211.814 184.786 211.828 184.801 211.843C184.815 211.857 184.829 211.871 184.843 211.885C184.857 211.9 184.872 211.914 184.886 211.928C184.9 211.942 184.914 211.956 184.928 211.97C184.942 211.984 184.956 211.999 184.971 212.013C184.985 212.027 184.999 212.041 185.013 212.055C185.027 212.069 185.041 212.083 185.055 212.097C185.069 212.111 185.083 212.125 185.097 212.139C185.111 212.153 185.125 212.167 185.139 212.181C185.153 212.195 185.166 212.209 185.18 212.222C185.194 212.236 185.208 212.25 185.222 212.264C185.236 212.278 185.249 212.292 185.263 212.305C185.277 212.319 185.291 212.333 185.305 212.347C185.318 212.36 185.332 212.374 185.346 212.388C185.359 212.402 185.373 212.415 185.387 212.429C185.4 212.443 185.414 212.456 185.428 212.47C185.441 212.483 185.455 212.497 185.469 212.511C185.482 212.524 185.496 212.538 185.509 212.551C185.523 212.565 185.536 212.578 185.55 212.592C185.563 212.605 185.577 212.619 185.59 212.632C185.604 212.646 185.617 212.659 185.63 212.672C185.644 212.686 185.657 212.699 185.67 212.713C185.684 212.726 185.697 212.739 185.71 212.753C185.724 212.766 185.737 212.779 185.75 212.792C185.764 212.806 185.777 212.819 185.79 212.832C185.803 212.845 185.816 212.859 185.83 212.872C185.843 212.885 185.856 212.898 185.869 212.911C185.882 212.924 185.895 212.937 185.908 212.95C185.921 212.964 185.934 212.977 185.947 212.99C185.96 213.003 185.973 213.016 185.986 213.029C185.999 213.042 186.012 213.055 186.025 213.067C186.038 213.08 186.051 213.093 186.064 213.106C186.077 213.119 186.09 213.132 186.103 213.145C186.115 213.158 186.128 213.17 186.141 213.183C186.154 213.196 186.167 213.209 186.179 213.222C186.192 213.234 186.205 213.247 186.218 213.26C186.23 213.272 186.243 213.285 186.256 213.298C186.268 213.31 186.281 213.323 186.293 213.336C186.306 213.348 186.319 213.361 186.331 213.373C186.344 213.386 186.356 213.398 186.369 213.411C186.381 213.423 186.394 213.436 186.406 213.448C186.419 213.461 186.431 213.473 186.443 213.485C186.456 213.498 186.468 213.51 186.48 213.523C186.493 213.535 186.505 213.547 186.517 213.559C186.53 213.572 186.542 213.584 186.554 213.596C186.566 213.609 186.579 213.621 186.591 213.633C186.603 213.645 186.615 213.657 186.627 213.669C186.639 213.682 186.652 213.694 186.664 213.706C186.676 213.718 186.688 213.73 186.7 213.742C186.712 213.754 186.724 213.766 186.736 213.778C186.748 213.79 186.76 213.802 186.772 213.814C186.784 213.826 186.796 213.838 186.807 213.85C186.819 213.861 186.831 213.873 186.843 213.885C186.855 213.897 186.867 213.909 186.878 213.921C186.89 213.932 186.902 213.944 186.914 213.956C186.925 213.968 186.937 213.979 186.949 213.991C186.96 214.003 186.972 214.014 186.984 214.026C186.995 214.037 187.007 214.049 187.018 214.061C187.03 214.072 187.042 214.084 187.053 214.095C187.065 214.107 187.076 214.118 187.087 214.13C187.099 214.141 187.11 214.152 187.122 214.164C187.133 214.175 187.144 214.187 187.156 214.198C187.167 214.209 187.178 214.221 187.19 214.232C187.201 214.243 187.212 214.254 187.224 214.266C187.235 214.277 187.246 214.288 187.257 214.299C187.268 214.31 187.279 214.322 187.291 214.333C187.302 214.344 187.313 214.355 187.324 214.366C187.335 214.377 187.346 214.388 187.357 214.399C187.368 214.41 187.379 214.421 187.39 214.432C187.401 214.443 187.412 214.454 187.423 214.465C187.433 214.476 187.444 214.486 187.455 214.497C187.466 214.508 187.477 214.519 187.488 214.53C187.498 214.54 187.509 214.551 187.52 214.562C187.531 214.573 187.541 214.583 187.552 214.594C187.563 214.605 187.573 214.615 187.584 214.626C187.594 214.636 187.605 214.647 187.615 214.658C187.626 214.668 187.637 214.679 187.647 214.689C187.657 214.7 187.668 214.71 187.678 214.72C187.689 214.731 187.699 214.741 187.71 214.752C187.72 214.762 187.73 214.772 187.741 214.783C187.751 214.793 187.761 214.803 187.771 214.814C187.782 214.824 187.792 214.834 187.802 214.844C187.812 214.854 187.822 214.864 187.832 214.875C187.843 214.885 187.853 214.895 187.863 214.905C187.873 214.915 187.883 214.925 187.893 214.935C187.903 214.945 187.913 214.955 187.923 214.965C187.933 214.975 187.943 214.985 187.953 214.995C187.962 215.005 187.972 215.014 187.982 215.024C187.992 215.034 188.002 215.044 188.011 215.054C188.021 215.063 188.031 215.073 188.041 215.083C188.05 215.092 188.06 215.102 188.07 215.112C188.079 215.121 188.089 215.131 188.098 215.141C188.108 215.15 188.118 215.16 188.127 215.169C188.137 215.179 188.146 215.188 188.155 215.198C188.165 215.207 188.174 215.216 188.184 215.226C188.193 215.235 188.202 215.245 188.212 215.254C188.221 215.263 188.23 215.273 188.24 215.282C188.249 215.291 188.258 215.3 188.267 215.309C188.277 215.319 188.286 215.328 188.295 215.337C188.304 215.346 188.313 215.355 188.322 215.364C188.331 215.373 188.34 215.382 188.349 215.391C188.358 215.4 188.367 215.409 188.376 215.418C188.385 215.427 188.394 215.436 188.403 215.445C188.412 215.454 188.42 215.463 188.429 215.471C188.438 215.48 188.447 215.489 188.456 215.498C188.464 215.506 188.473 215.515 188.482 215.524C188.49 215.532 188.499 215.541 188.508 215.55C188.516 215.558 188.525 215.567 188.533 215.575C188.542 215.584 188.55 215.592 188.559 215.601C188.567 215.609 188.576 215.618 188.584 215.626C188.593 215.635 188.601 215.643 188.609 215.651C188.618 215.66 188.626 215.668 188.634 215.676C188.642 215.685 188.651 215.693 188.659 215.701C188.667 215.709 188.675 215.717 188.683 215.725C188.691 215.734 188.7 215.742 188.708 215.75C188.716 215.758 188.724 215.766 188.732 215.774C188.74 215.782 188.748 215.79 188.756 215.798C188.764 215.806 188.771 215.814 188.779 215.821C188.787 215.829 188.795 215.837 188.803 215.845C188.811 215.853 188.818 215.86 188.826 215.868C188.834 215.876 188.841 215.884 188.849 215.891C188.857 215.899 188.864 215.906 188.872 215.914C188.88 215.922 188.887 215.929 188.895 215.937C188.902 215.944 188.91 215.952 188.917 215.959C188.924 215.967 188.932 215.974 188.939 215.981C188.947 215.989 188.954 215.996 188.961 216.003C188.969 216.011 188.976 216.018 188.983 216.025C188.99 216.032 188.997 216.04 189.005 216.047C189.012 216.054 189.019 216.061 189.026 216.068C189.033 216.075 189.04 216.082 189.047 216.089C189.054 216.096 189.061 216.103 189.068 216.11C189.075 216.117 189.082 216.124 189.089 216.131C189.096 216.138 189.102 216.145 189.109 216.151C189.116 216.158 189.123 216.165 189.13 216.172C189.136 216.178 189.143 216.185 189.15 216.192C189.156 216.198 189.163 216.205 189.169 216.212C189.176 216.218 189.183 216.225 189.189 216.231C189.196 216.238 189.202 216.244 189.208 216.251C189.215 216.257 189.221 216.263 189.228 216.27C189.234 216.276 189.24 216.282 189.247 216.289C189.253 216.295 189.259 216.301 189.265 216.307C189.272 216.314 189.278 216.32 189.284 216.326C189.29 216.332 189.296 216.338 189.302 216.344C189.308 216.35 189.314 216.356 189.32 216.362C189.326 216.368 189.332 216.374 189.338 216.38C189.344 216.386 189.35 216.392 189.356 216.398C189.361 216.404 189.367 216.409 189.373 216.415C189.379 216.421 189.384 216.427 189.39 216.432C189.396 216.438 189.401 216.444 189.407 216.449C189.413 216.455 189.418 216.46 189.424 216.466C189.429 216.471 189.435 216.477 189.44 216.482C189.446 216.488 189.451 216.493 189.456 216.499C189.462 216.504 189.467 216.509 189.472 216.514C189.478 216.52 189.483 216.525 189.488 216.53C189.493 216.535 189.499 216.541 189.504 216.546C189.509 216.551 189.514 216.556 189.519 216.561C189.524 216.566 189.529 216.571 189.534 216.576C189.539 216.581 189.544 216.586 189.549 216.591C189.554 216.596 189.559 216.601 189.563 216.606C189.568 216.61 189.573 216.615 189.578 216.62C189.582 216.625 189.587 216.629 189.592 216.634C189.597 216.639 189.601 216.643 189.606 216.648C189.61 216.652 189.615 216.657 189.619 216.661C189.624 216.666 189.628 216.67 189.633 216.675C189.637 216.679 189.642 216.684 189.646 216.688C189.65 216.692 189.655 216.697 189.659 216.701C189.663 216.705 189.667 216.709 189.671 216.714C189.676 216.718 189.68 216.722 189.684 216.726C189.688 216.73 189.692 216.734 189.696 216.738C189.7 216.742 189.704 216.746 189.708 216.75C189.712 216.754 189.716 216.758 189.72 216.762C189.723 216.766 189.727 216.769 189.731 216.773C189.735 216.777 189.739 216.781 189.742 216.784C189.746 216.788 189.75 216.792 189.753 216.795C189.757 216.799 189.76 216.802 189.764 216.806C189.767 216.81 189.771 216.813 189.774 216.816C189.778 216.82 189.781 216.823 189.785 216.827C189.788 216.83 189.791 216.833 189.794 216.837C189.798 216.84 189.801 216.843 189.804 216.846C189.807 216.849 189.81 216.853 189.814 216.856C189.817 216.859 189.82 216.862 189.823 216.865C189.826 216.868 189.829 216.871 189.832 216.874C189.835 216.877 189.838 216.88 189.84 216.883C189.843 216.885 189.846 216.888 189.849 216.891C189.852 216.894 189.854 216.896 189.857 216.899C189.86 216.902 189.862 216.904 189.865 216.907C189.867 216.91 189.87 216.912 189.873 216.915C189.875 216.917 189.877 216.92 189.88 216.922C189.882 216.924 189.885 216.927 189.887 216.929C189.889 216.932 189.892 216.934 189.894 216.936C189.896 216.938 189.898 216.94 189.901 216.943C189.903 216.945 189.905 216.947 189.907 216.949C189.909 216.951 189.911 216.953 189.913 216.955C189.915 216.957 189.917 216.959 189.919 216.961C189.921 216.963 189.923 216.965 189.924 216.966C189.926 216.968 189.928 216.97 189.93 216.972C189.931 216.974 189.933 216.975 189.935 216.977C189.936 216.978 189.938 216.98 189.939 216.982C189.941 216.983 189.943 216.985 189.944 216.986C189.945 216.988 189.947 216.989 189.948 216.99C189.95 216.992 189.951 216.993 189.952 216.994C189.953 216.996 189.955 216.997 189.956 216.998C189.957 216.999 189.958 217 189.959 217.001C189.96 217.003 189.961 217.004 189.962 217.005C189.963 217.006 189.964 217.007 189.965 217.007C189.966 217.008 189.967 217.009 189.968 217.01C189.969 217.011 189.97 217.012 189.97 217.012C189.971 217.013 189.972 217.014 189.972 217.015C189.973 217.015 189.974 217.016 189.974 217.016C189.975 217.017 189.975 217.017 189.976 217.018C189.976 217.018 189.977 217.019 189.977 217.019C189.977 217.019 189.978 217.02 189.978 217.02C189.978 217.02 189.978 217.021 189.979 217.021C189.979 217.021 189.979 217.021 189.979 217.021C189.979 217.021 189.979 217.021 202 205Z" fill="#C4A77D"/>
</svg>
